<svg width="513" height="513" viewBox="0 0 513 513" fill="none" xmlns="http://www.w3.org/2000/svg">
<g clip-path="url(#clip0_4_2)">
<path d="M159.618 366.608H111.805C103.829 366.608 97.364 360.143 97.364 352.168C97.364 344.193 103.829 337.728 111.805 337.728H159.618V366.608Z" fill="#A4A9AD"/>
<path d="M159.618 225.951H111.805C103.829 225.951 97.364 219.486 97.364 211.511C97.364 203.536 103.829 197.07 111.805 197.07H159.618V225.951Z" fill="#A4A9AD"/>
<path d="M159.618 85.295H111.805C103.829 85.295 97.364 78.83 97.364 70.854C97.364 62.879 103.829 56.414 111.805 56.414H159.618V85.295Z" fill="#A4A9AD"/>
<path opacity="0.1" d="M159.614 337.723H128.307V366.603H159.614V337.723Z" fill="black"/>
<path opacity="0.1" d="M159.614 197.07H128.307V225.95H159.614V197.07Z" fill="black"/>
<path opacity="0.1" d="M159.614 56.417H128.307V85.297H159.614V56.417Z" fill="black"/>
<path d="M352.385 366.608H400.198C408.174 366.608 414.639 360.143 414.639 352.168C414.639 344.193 408.174 337.728 400.198 337.728H352.385V366.608Z" fill="#A4A9AD"/>
<path d="M352.385 225.951H400.198C408.174 225.951 414.639 219.486 414.639 211.511C414.639 203.536 408.174 197.07 400.198 197.07H352.385V225.951Z" fill="#A4A9AD"/>
<path d="M352.385 85.295H400.198C408.174 85.295 414.639 78.83 414.639 70.854C414.639 62.879 408.174 56.414 400.198 56.414H352.385V85.295Z" fill="#A4A9AD"/>
<path opacity="0.1" d="M383.69 337.723H352.383V366.603H383.69V337.723Z" fill="black"/>
<path opacity="0.1" d="M383.69 197.07H352.383V225.95H383.69V197.07Z" fill="black"/>
<path opacity="0.1" d="M383.69 56.417H352.383V85.297H383.69V56.417Z" fill="black"/>
<path d="M369.198 44.851C369.198 24.536 352.577 7.91501 332.262 7.91501H179.746C159.431 7.91501 142.81 24.536 142.81 44.851V467.149C142.81 487.464 159.431 504.085 179.746 504.085H332.262C352.577 504.085 369.198 487.464 369.198 467.149V44.851Z" fill="#333E48"/>
<g opacity="0.2">
<path d="M209.295 474.536C188.98 474.536 172.359 457.915 172.359 437.6V74.4C172.359 54.085 188.98 37.464 209.295 37.464H302.713C323.028 37.464 339.649 54.085 339.649 74.4V437.6C339.649 457.915 323.028 474.536 302.713 474.536H209.295Z" fill="black"/>
</g>
<path d="M256.001 447.213C285.522 447.213 309.453 423.282 309.453 393.761C309.453 364.24 285.522 340.309 256.001 340.309C226.48 340.309 202.549 364.24 202.549 393.761C202.549 423.282 226.48 447.213 256.001 447.213Z" fill="#1D1C1C"/>
<path opacity="0.2" d="M256.002 340.309C231.103 340.309 210.181 357.333 204.241 380.376H307.764C301.823 357.333 280.9 340.309 256.002 340.309Z" fill="black"/>
<path d="M305.913 337.37C313.55 337.37 319.742 343.562 319.742 351.199C319.742 358.836 313.55 365.028 305.913 365.028H206.098C198.46 365.028 192.268 358.836 192.268 351.199C192.268 343.561 198.46 337.37 206.098 337.37H305.913Z" fill="#D1D3D3"/>
<path opacity="0.4" d="M288.494 409.436C292.372 409.436 295.515 406.293 295.515 402.415C295.515 398.537 292.372 395.394 288.494 395.394C284.616 395.394 281.473 398.537 281.473 402.415C281.473 406.293 284.616 409.436 288.494 409.436Z" fill="white"/>
<path opacity="0.3" d="M271.028 402.419C274.906 402.419 278.05 399.275 278.05 395.397C278.05 391.519 274.906 388.375 271.028 388.375C267.15 388.375 264.006 391.519 264.006 395.397C264.006 399.275 267.15 402.419 271.028 402.419Z" fill="white"/>
<path opacity="0.4" d="M276.083 427.567C279.961 427.567 283.105 424.423 283.105 420.545C283.105 416.667 279.961 413.523 276.083 413.523C272.205 413.523 269.061 416.667 269.061 420.545C269.061 424.423 272.205 427.567 276.083 427.567Z" fill="white"/>
<path d="M256.001 312.501C285.522 312.501 309.453 288.57 309.453 259.049C309.453 229.528 285.522 205.597 256.001 205.597C226.48 205.597 202.549 229.528 202.549 259.049C202.549 288.57 226.48 312.501 256.001 312.501Z" fill="#1D1C1C"/>
<path opacity="0.2" d="M256.002 205.601C231.103 205.601 210.181 222.625 204.241 245.668H307.764C301.823 222.626 280.9 205.601 256.002 205.601Z" fill="black"/>
<path d="M305.913 202.663C313.55 202.663 319.742 208.855 319.742 216.493C319.742 224.131 313.55 230.322 305.913 230.322H206.098C198.46 230.322 192.268 224.13 192.268 216.493C192.268 208.856 198.46 202.663 206.098 202.663H305.913Z" fill="#D1D3D3"/>
<path opacity="0.4" d="M288.494 274.735C292.372 274.735 295.515 271.592 295.515 267.714C295.515 263.836 292.372 260.693 288.494 260.693C284.616 260.693 281.473 263.836 281.473 267.714C281.473 271.592 284.616 274.735 288.494 274.735Z" fill="white"/>
<path opacity="0.3" d="M271.028 267.707C274.906 267.707 278.05 264.563 278.05 260.685C278.05 256.807 274.906 253.663 271.028 253.663C267.15 253.663 264.006 256.807 264.006 260.685C264.006 264.563 267.15 267.707 271.028 267.707Z" fill="white"/>
<path opacity="0.4" d="M276.083 292.855C279.961 292.855 283.105 289.711 283.105 285.833C283.105 281.955 279.961 278.811 276.083 278.811C272.205 278.811 269.061 281.955 269.061 285.833C269.061 289.711 272.205 292.855 276.083 292.855Z" fill="white"/>
<path d="M256.001 177.8C285.522 177.8 309.453 153.869 309.453 124.348C309.453 94.8273 285.522 70.896 256.001 70.896C226.48 70.896 202.549 94.8273 202.549 124.348C202.549 153.869 226.48 177.8 256.001 177.8Z" fill="#FF5959"/>
<path opacity="0.2" d="M256.002 70.893C231.103 70.893 210.181 87.917 204.241 110.96H307.764C301.823 87.918 280.9 70.893 256.002 70.893Z" fill="black"/>
<path d="M305.913 67.954C313.55 67.954 319.742 74.146 319.742 81.783C319.742 89.421 313.55 95.613 305.913 95.613H206.098C198.46 95.613 192.268 89.421 192.268 81.783C192.268 74.146 198.46 67.954 206.098 67.954H305.913Z" fill="#D1D3D3"/>
<path opacity="0.4" d="M288.494 140.023C292.372 140.023 295.515 136.88 295.515 133.002C295.515 129.124 292.372 125.981 288.494 125.981C284.616 125.981 281.473 129.124 281.473 133.002C281.473 136.88 284.616 140.023 288.494 140.023Z" fill="white"/>
<path opacity="0.3" d="M271.028 133.006C274.906 133.006 278.05 129.862 278.05 125.984C278.05 122.106 274.906 118.962 271.028 118.962C267.15 118.962 264.006 122.106 264.006 125.984C264.006 129.862 267.15 133.006 271.028 133.006Z" fill="white"/>
<path opacity="0.4" d="M276.083 158.144C279.961 158.144 283.105 155 283.105 151.122C283.105 147.244 279.961 144.1 276.083 144.1C272.205 144.1 269.061 147.244 269.061 151.122C269.061 155 272.205 158.144 276.083 158.144Z" fill="white"/>
<path d="M305.913 194.748H206.098C194.107 194.748 184.353 204.502 184.353 216.493C184.353 225.904 190.374 233.915 198.757 236.936C196.049 243.948 194.636 251.431 194.636 259.056C194.636 292.893 222.165 320.422 256.002 320.422C289.84 320.422 317.369 292.893 317.369 259.056C317.369 251.432 315.957 243.95 313.249 236.939C321.635 233.92 327.657 225.908 327.657 216.494C327.657 204.502 317.902 194.748 305.913 194.748ZM256.002 304.59C230.893 304.59 210.466 284.162 210.466 259.054C210.466 251.76 212.217 244.648 215.518 238.238H296.488C299.789 244.648 301.54 251.76 301.54 259.054C301.539 284.162 281.111 304.59 256.002 304.59ZM305.913 222.407H206.098C202.836 222.407 200.183 219.754 200.183 216.492C200.183 213.231 202.837 210.577 206.098 210.577H305.913C309.175 210.577 311.827 213.23 311.827 216.492C311.827 219.753 309.174 222.407 305.913 222.407ZM305.913 60.039H206.098C194.107 60.039 184.353 69.793 184.353 81.783C184.353 91.194 190.374 99.205 198.757 102.226C196.049 109.238 194.636 116.721 194.636 124.344C194.636 158.182 222.165 185.71 256.002 185.71C289.84 185.71 317.369 158.181 317.369 124.344C317.369 116.72 315.957 109.238 313.249 102.228C321.635 99.209 327.657 91.197 327.657 81.783C327.657 69.794 317.902 60.039 305.913 60.039ZM256.002 169.881C230.893 169.881 210.466 149.453 210.466 124.345C210.466 117.051 212.217 109.939 215.518 103.529H296.488C299.789 109.939 301.54 117.051 301.54 124.345C301.539 149.453 281.111 169.881 256.002 169.881ZM305.913 87.699H206.098C202.836 87.699 200.183 85.046 200.183 81.784C200.183 78.523 202.837 75.87 206.098 75.87H305.913C309.175 75.87 311.827 78.523 311.827 81.784C311.827 85.045 309.174 87.699 305.913 87.699ZM400.197 233.866C412.524 233.866 422.553 223.837 422.553 211.51C422.553 199.184 412.524 189.155 400.197 189.155H377.113V93.21H400.197C412.524 93.21 422.553 83.181 422.553 70.854C422.553 58.528 412.524 48.499 400.197 48.499H377.113V44.851C377.113 20.12 356.994 0 332.262 0H179.746C155.015 0 134.895 20.121 134.895 44.851V48.5H111.805C99.478 48.5 89.449 58.529 89.449 70.855C89.449 83.182 99.478 93.211 111.805 93.211H134.895V189.156H111.805C99.478 189.156 89.449 199.185 89.449 211.511C89.449 223.838 99.478 233.867 111.805 233.867H134.895V329.812H111.805C99.478 329.812 89.449 339.841 89.449 352.167C89.449 364.494 99.478 374.523 111.805 374.523H134.895V467.151C134.895 491.881 155.015 512.002 179.746 512.002H332.262C356.993 512.002 377.113 491.881 377.113 467.151V374.522H400.197C412.524 374.522 422.553 364.493 422.553 352.166C422.553 339.84 412.524 329.811 400.197 329.811H377.113V233.866H400.197ZM377.113 64.33H400.197C403.795 64.33 406.723 67.257 406.723 70.855C406.723 74.454 403.796 77.381 400.197 77.381H377.113V64.33ZM377.113 204.985H400.197C403.795 204.985 406.723 207.912 406.723 211.51C406.723 215.109 403.796 218.036 400.197 218.036H377.113V204.985ZM134.895 358.693H111.805C108.207 358.693 105.279 355.766 105.279 352.167C105.279 348.569 108.206 345.642 111.805 345.642H134.895V358.693ZM134.895 218.036H111.805C108.207 218.036 105.279 215.109 105.279 211.51C105.279 207.912 108.206 204.985 111.805 204.985H134.895V218.036ZM134.895 77.38H111.805C108.207 77.38 105.279 74.453 105.279 70.854C105.279 67.256 108.206 64.329 111.805 64.329H134.895V77.38ZM361.283 467.149C361.283 483.151 348.264 496.17 332.262 496.17H179.746C163.744 496.17 150.725 483.15 150.725 467.149V44.851C150.725 28.848 163.744 15.83 179.746 15.83H332.262C348.264 15.83 361.283 28.849 361.283 44.851V467.149ZM400.197 345.642C403.795 345.642 406.723 348.569 406.723 352.167C406.723 355.766 403.796 358.693 400.197 358.693H377.113V345.642H400.197ZM305.913 329.455H206.098C194.107 329.455 184.353 339.209 184.353 351.199C184.353 360.61 190.374 368.621 198.757 371.642C196.049 378.652 194.636 386.137 194.636 393.762C194.636 427.599 222.165 455.128 256.002 455.128C289.84 455.128 317.369 427.599 317.369 393.762C317.369 386.138 315.957 378.655 313.249 371.645C321.635 368.626 327.657 360.614 327.657 351.201C327.657 339.209 317.902 329.455 305.913 329.455ZM256.002 439.297C230.893 439.297 210.466 418.869 210.466 393.761C210.466 386.467 212.217 379.355 215.518 372.945H296.488C299.789 379.355 301.54 386.467 301.54 393.761C301.539 418.869 281.111 439.297 256.002 439.297ZM305.913 357.115H206.098C202.836 357.115 200.183 354.462 200.183 351.2C200.183 347.939 202.837 345.286 206.098 345.286H305.913C309.175 345.286 311.827 347.939 311.827 351.2C311.827 354.461 309.174 357.115 305.913 357.115Z" fill="#1E252B"/>
</g>
<defs>
<clipPath id="clip0_4_2">
<rect width="512.002" height="512.002" fill="white"/>
</clipPath>
</defs>
</svg>
